UFC 118: Edgar Vs Penn 2 [SatRiP-XviD-Mp3-ENG][TNTVillage.Scambioetico]




General
Complete name                    : C:\UFC.118.Edgar.Vs.Penn.2.DSR.XviD-XWT\Part1.avi
Format                           : AVI
Format/Info                      : Audio Video Interleave
File size                        : 770 MiB
Duration                         : 1h 32mn
Overall bit rate                 : 1 164 Kbps
Writing library                  : MPlayer

Video
Format                           : MPEG-4 Visual
Format profile                   : Streaming Video@L1
Format settings, BVOP            : Yes
Format settings, QPel            : No
Format settings, GMC             : No warppoints
Format settings, Matrix          : Default
Codec ID                         : XVID
Codec ID/Hint                    : XviD
Duration                         : 1h 32mn
Bit rate                         : 1 024 Kbps
Width                            : 640 pixels
Height                           : 368 pixels
Display aspect ratio             : 16/9
Frame rate                       : 25.000 fps
Resolution                       : 24 bits
Colorimetry                      : 4:2:0
Scan type                        : Progressive
Bits/(Pixel*Frame)               : 0.174
Stream size                      : 677 MiB (88%)
Writing library                  : XviD 1.1.2 (UTC 2006-11-01)

Audio
Format                           : MPEG Audio
Format version                   : Version 1
Format profile                   : Layer 3
Codec ID                         : 55
Codec ID/Hint                    : MP3
Duration                         : 1h 32mn
Bit rate mode                    : Constant
Bit rate                         : 128 Kbps
Channel(s)                       : 2 channels
Sampling rate                    : 44.1 KHz
Resolution                       : 16 bits
Stream size                      : 84.7 MiB (11%)
Alignment                        : Aligned on interleaves
Interleave, duration             : 26 ms (0.65 video frame)
Interleave, preload duration     : 809 ms


 
http://uptiki.com/images/sx18z33wciz4kc7q6t62.png
 
http://uptiki.com/images/zpxqajezjgu7hoqwy4l7.png
 
http://uptiki.com/images/2p1qvsiiuw3s186s450b.png
 
http://uptiki.com/images/04pbz46flkadmgn1710.png
 
http://uptiki.com/images/1qi7u4irqe858dwzi0w.png
 
http://uptiki.com/images/bnq33f8wdq0fksfyo0zu.png
 
http://uptiki.com/images/8y4juvztceugvmp6qekt.png
 
http://uptiki.com/images/trcmsvdhik4d13us3q.png